<?xml version="1.0" standalone="no"?>
<!DOCTYPE svg PUBLIC "-//W3C//DTD SVG 20010904//EN"
 "http://www.w3.org/TR/2001/REC-SVG-20010904/DTD/svg10.dtd">
<svg version="1.0" xmlns="http://www.w3.org/2000/svg"
 width="478.000000pt" height="162.000000pt" viewBox="0 0 478.000000 162.000000"
 preserveAspectRatio="xMidYMid meet">
<metadata>
Created by potrace 1.16, written by Peter Selinger 2001-2019
</metadata>
<g transform="translate(0.000000,162.000000) scale(0.100000,-0.100000)"
fill="#000000" stroke="none">
<path d="M946 1216 c-21 -14 -69 -34 -107 -46 -73 -24 -130 -22 -195 5 -27 11
-32 10 -42 -5 -9 -15 -7 -20 16 -29 37 -15 122 -28 156 -24 38 5 124 40 158
64 34 25 35 23 41 -89 5 -87 28 -149 81 -220 23 -31 25 -32 35 -14 8 15 4 26
-21 56 -41 50 -68 149 -68 248 0 43 -3 78 -7 78 -5 0 -25 -11 -47 -24z"/>
<path d="M1182 1131 c5 -92 22 -124 107 -206 l52 -51 -81 -33 c-84 -34 -169
-101 -202 -159 -17 -29 -17 -30 2 -35 15 -4 26 5 47 38 34 55 111 106 214 142
43 15 79 30 79 33 0 3 -17 16 -37 30 -46 31 -119 130 -133 178 -5 20 -10 58
-10 83 0 43 -10 59 -37 59 -3 0 -3 -36 -1 -79z"/>
<path d="M504 966 c3 -17 9 -63 12 -102 8 -84 -12 -157 -56 -207 -20 -23 -25
-38 -20 -52 7 -18 10 -17 44 19 54 60 70 110 63 209 -3 45 -9 91 -13 101 -6
16 -4 18 12 12 96 -38 214 -48 304 -26 52 12 56 16 41 39 -7 11 -16 11 -55 -4
-60 -23 -164 -16 -265 18 l-73 24 6 -31z"/>
<path d="M726 795 c-3 -9 -6 -38 -6 -63 0 -56 -21 -105 -89 -208 -28 -42 -51
-78 -51 -80 0 -2 14 -4 31 -4 51 0 163 -38 207 -70 23 -16 54 -48 68 -70 26
-39 47 -50 59 -30 8 14 -49 94 -88 125 -42 31 -104 53 -174 61 -29 4 -53 10
-53 15 0 4 14 23 30 41 55 59 92 147 93 224 1 42 -2 68 -9 71 -6 2 -14 -3 -18
-12z"/>
<path d="M830 611 c0 -15 13 -24 58 -38 66 -21 124 -72 191 -172 l44 -64 28
54 c43 86 110 154 175 178 30 12 63 21 74 21 13 0 18 6 17 20 -3 48 -135 3
-199 -68 -45 -49 -71 -99 -62 -114 4 -6 3 -8 -4 -4 -6 3 -15 -1 -20 -10 -8
-14 -16 -8 -49 37 -54 73 -115 126 -177 155 -62 29 -76 30 -76 5z"/>
</g>
</svg>
